<?xml version="1.0" encoding="UTF-8" standalone="no"?>
<!-- Created with Inkscape (http://www.inkscape.org/) -->

<svg
   xmlns:svg="http://www.w3.org/2000/svg"
   xmlns="http://www.w3.org/2000/svg"
   version="1.1"
   width="720"
   height="720"
   id="svg2">
  <defs
     id="defs4" />
  <g
     transform="translate(0,-332.36218)"
     id="layer1">
    <path
       d="m 356.19304,380.99947 c -9.7843,0 -19.31955,0.97855 -28.54571,2.86652 -9.22617,1.88796 -18.15666,4.65529 -26.6347,8.24123 -8.47804,3.58593 -16.46706,8.04428 -24.00706,13.13819 -7.54001,5.09391 -14.60918,10.90659 -21.02111,17.31853 -6.41194,6.41193 -12.22462,13.36166 -17.31853,20.90167 -5.09391,7.54 -9.43282,15.64846 -13.01876,24.1265 -3.58593,8.47804 -6.35326,17.2891 -8.24123,26.51526 -1.88796,9.22617 -2.98595,18.88085 -2.98595,28.66515 l 0.11925,0 -87.54814,269.57184 229.32119,166.61617 229.32119,-166.61617 0,0.11924 c 9.30535,-3.02344 18.20466,-6.93899 26.39582,-11.5855 8.19116,-4.64669 15.61868,-10.09399 22.57381,-16.12414 6.95492,-6.03031 13.39381,-12.77162 18.99066,-19.94617 5.59677,-7.17465 10.33516,-14.73323 14.45201,-22.81268 4.1167,-8.07952 7.51826,-16.69523 10.0328,-25.44032 2.5147,-8.74497 4.22578,-17.70233 5.0164,-26.87357 0.79055,-9.17121 0.69718,-18.4711 -0.35812,-27.82909 -1.05545,-9.35802 -3.06786,-18.76256 -6.09135,-28.06795 -3.02352,-9.30544 -6.93891,-18.08519 -11.58549,-26.27639 -4.64662,-8.1912 -9.97444,-15.85775 -16.00471,-22.81268 -6.03027,-6.95493 -12.77159,-13.15482 -19.94617,-18.75179 -7.17469,-5.59673 -14.85267,-10.45471 -22.93212,-14.57145 -8.07959,-4.11673 -16.57575,-7.51814 -25.32088,-10.0328 -8.74505,-2.51474 -17.70237,-4.1063 -26.87357,-4.89696 -9.17121,-0.79055 -18.47102,-0.69714 -27.82909,0.35812 -9.35794,1.05545 -18.88196,2.94831 -28.18739,5.97191 0,-9.7843 -0.97855,-19.43899 -2.86652,-28.66515 -1.88796,-9.22617 -4.77473,-18.03722 -8.36067,-26.51526 -3.58593,-8.47805 -7.92484,-16.5865 -13.01875,-24.1265 -5.09391,-7.54001 -10.90659,-14.48974 -17.31853,-20.90168 -6.41193,-6.41193 -13.4811,-12.22461 -21.02111,-17.31852 -7.54,-5.09391 -15.52902,-9.55226 -24.00706,-13.1382 -8.47804,-3.58593 -17.40854,-6.35326 -26.6347,-8.24123 -9.22616,-1.88796 -18.76142,-2.86651 -28.54571,-2.86651 z m 229.44063,411.46432 -229.32119,166.49674 -0.11925,0.11925 c 5.75103,7.91563 12.27919,15.14445 19.22954,21.49886 6.95042,6.35438 14.45063,11.85063 22.33493,16.6019 7.88436,4.75106 16.17077,8.71846 24.72369,11.82436 8.55299,3.1058 17.32021,5.2699 26.27638,6.6886 8.95618,1.4185 18.01834,1.983 27.11246,1.6721 9.09403,-0.3107 18.2652,-1.3815 27.23189,-3.4637 8.96661,-2.0822 17.82204,-5.0623 26.39582,-8.9579 8.5739,-3.8956 16.80806,-8.70096 24.72369,-14.452 7.91571,-5.75106 15.02501,-12.15975 21.37943,-19.11009 6.35441,-6.95046 11.97022,-14.4506 16.72133,-22.33493 4.75108,-7.88429 8.59901,-16.1707 11.70494,-24.72369 3.10573,-8.55303 5.38943,-17.43965 6.80797,-26.39583 1.41854,-8.95629 2.10238,-18.01826 1.79157,-27.11245 -0.31073,-9.09412 -1.62046,-18.14577 -3.70258,-27.11245 -2.0822,-8.96662 -4.94283,-17.70253 -8.83842,-26.27639 -3.89555,-8.57382 -8.7009,-17.0469 -14.45201,-24.96257 z M 356.19304,959.07997 126.87185,792.46379 c -5.75103,7.91564 -10.67582,16.26931 -14.57145,24.84313 -3.89556,8.57382 -6.75611,17.42922 -8.83842,26.39583 -2.08216,8.96665 -3.27226,18.01834 -3.583148,27.11245 -0.31073,9.09411 0.253788,18.1562 1.672138,27.11245 1.41854,8.95618 3.70208,17.84287 6.80797,26.39583 3.10577,8.55295 6.95386,16.83928 11.70494,24.72369 4.75115,7.88429 10.36696,15.38455 16.72133,22.33493 6.35442,6.95042 13.46379,13.35903 21.37943,19.1101 7.91567,5.75107 16.2693,10.5564 24.84313,14.452 8.57389,3.8956 17.42921,6.8757 26.39582,8.9579 8.96661,2.0821 18.0183,3.1528 27.11245,3.4637 9.09412,0.3107 18.15624,-0.2538 27.11246,-1.6721 8.95625,-1.4186 17.84279,-3.5827 26.39582,-6.6886 8.55303,-3.1057 16.83929,-7.0733 24.72369,-11.82437 7.88433,-4.75115 15.26507,-10.24748 22.21549,-16.6019 6.95038,-6.35437 13.47843,-13.58319 19.22954,-21.49886 z M 126.87185,792.46379 214.41999,522.77252 c -9.30539,-3.02352 -18.70993,-5.03586 -28.06796,-6.09135 -9.35798,-1.05545 -18.65787,-1.0293 -27.82908,-0.23887 -9.17124,0.79058 -18.24793,2.38238 -26.99301,4.89696 -8.74505,2.51462 -17.12193,5.91607 -25.20145,10.0328 -8.079518,4.11674 -15.876968,8.97456 -23.051548,14.57145 -7.17466,5.59678 -13.79643,11.79682 -19.82673,18.75179 -6.03027,6.95501 -11.47757,14.62152 -16.12415,22.81268 -4.64662,8.1912 -8.56197,16.97099 -11.5855,26.27639 -3.02352,9.30543 -5.03585,18.70993 -6.09134,28.06795 -1.05545,9.35803 -1.14886,18.65788 -0.35812,27.82909 0.79058,9.1712 2.62121,18.12845 5.13584,26.87357 2.51462,8.74505 5.79666,17.3608 9.91336,25.44032 4.11674,8.07952 8.97456,15.63806 14.57145,22.81268 5.59678,7.17466 11.91626,13.91583 18.87122,19.94617 6.95501,6.03027 14.50205,11.35809 22.693248,16.00471 8.19116,4.64658 17.09039,8.68141 26.39582,11.70493 z"
       id="path2967"
       style="fill:#6c63ff;fill-opacity:1;stroke:none" />
  </g>
</svg>
